#!OML:ASF E:\Style4\Style4.ASF
:FULLY-SPECIFIED
:DEGREES
2918
root 0.27841 17.3367 -1.54687 2.26179 -14.8356 6.69648
lowerback 11.9603 4.27859 -0.471084
upperback 6.97716 5.54343 -1.07161
thorax 0.682523 2.76447 -1.4579
lowerneck 3.81802 0.0263774 -2.80021
upperneck 16.7822 1.28688 -9.1255
head 4.44645 0.0388523 -2.32308
rclavicle 3.18055e-015 1.03368e-014
rhumerus 7.43139 58.6336 -60.2234
rradius 117.878
rwrist -64.5161
rhand -1.62346 8.10764
rfingers 7.12502
rthumb 24.0345 -20.4075
lclavicle 3.18055e-015 1.03368e-014
lhumerus -25.3132 27.2217 24.807
lradius 49.1125
lwrist 66.1493
lhand -23.8853 38.4481
lfingers 7.12502
lthumb 2.58809 68.4122
rfemur -27.6545 5.86755 11.7063
rtibia 46.8981
rfoot -22.3894 -7.46176
rtoes -11.3785
lfemur -19.2649 9.49836 -27.751
ltibia 39.7199
lfoot -25.1406 13.355
ltoes -13.1864
2919
root 0.290671 17.3093 -1.53027 1.91975 -15.1322 6.76128
lowerback 12.0097 4.10775 -0.681624
upperback 6.92484 5.29556 -1.01297
thorax 0.570463 2.63225 -1.26083
lowerneck 3.90721 0.301614 -2.8493
upperneck 16.9746 1.66896 -9.16632
head 4.50482 0.21205 -2.32003
rclavicle 3.69739e-014 -8.74653e-015
rhumerus 4.72792 58.6975 -61.7875
rradius 119.062
rwrist -64.7378
rhand -2.27191 8.2095
rfingers 7.12502
rthumb 23.4126 -20.3863
lclavicle 3.69739e-014 -8.74653e-015
lhumerus -25.1132 26.4503 25.2094
lradius 51.1351
lwrist 67.5371
lhand -23.3607 38.547
lfingers 7.12502
lthumb 3.09479 68.5042
rfemur -27.5646 5.9037 11.6356
rtibia 47.3399
rfoot -22.6573 -7.29385
rtoes -11.516
lfemur -19.1354 9.7268 -27.809
ltibia 40.2384
lfoot -25.5317 13.3729
ltoes -13.3486
2920
root 0.302408 17.2827 -1.51367 1.55287 -15.3961 6.68412
lowerback 12.0604 3.8397 -0.866234
upperback 6.92711 4.92282 -0.856427
thorax 0.509205 2.4366 -0.959628
lowerneck 4.01527 0.670238 -3.00563
upperneck 17.0222 2.17168 -9.28396
head 4.5204 0.439587 -2.31868
rclavicle -4.73108e-014 -3.18055e-015
rhumerus 2.58008 58.8024 -62.7745
rradius 120.09
rwrist -65.1312
rhand -2.77127 7.98694
rfingers 7.12502
rthumb 22.9335 -20.6691
lclavicle -4.73108e-014 -3.18055e-015
lhumerus -25.2884 25.6882 25.5171
lradius 53.3967
lwrist 68.9415
lhand -23.2683 38.4793
lfingers 7.12502
lthumb 3.18401 68.4353
rfemur -27.3657 5.91855 11.7285
rtibia 47.7182
rfoot -22.8878 -7.12565
rtoes -11.6497
lfemur -18.9116 9.97263 -27.7014
ltibia 40.7257
lfoot -25.8285 13.3678
ltoes -13.5366
2921
root 0.315384 17.2593 -1.49722 1.23846 -15.5708 6.57763
lowerback 12.1201 3.62184 -0.842437
upperback 6.89122 4.63644 -0.81078
thorax 0.434194 2.2928 -0.89882
lowerneck 4.14184 0.939473 -2.93674
upperneck 17.084 2.53189 -9.33236
head 4.53176 0.614875 -2.33728
rclavicle 3.49861e-014 -7.95139e-015
rhumerus 0.233721 58.4155 -63.9268
rradius 120.92
rwrist -65.3424
rhand -3.15916 7.48377
rfingers 7.12502
rthumb 22.5612 -21.218
lclavicle 3.49861e-014 -7.95139e-015
lhumerus -25.0004 24.8208 26.0143
lradius 55.6817
lwrist 70.1234
lhand -23.1404 38.2351
lfingers 7.12502
lthumb 3.30754 68.1892
rfemur -27.1456 5.85235 11.8338
rtibia 48.0051
rfoot -23.1125 -6.91133
rtoes -11.557
lfemur -18.7163 10.0922 -27.5742
ltibia 41.181
lfoot -26.1979 13.3836
ltoes -13.8588
2922
root 0.328174 17.2391 -1.48015 0.991398 -15.6613 6.52399
lowerback 12.1136 3.401 -0.842621
upperback 6.82233 4.34493 -0.82799
thorax 0.363761 2.14729 -0.885335
lowerneck 4.15057 1.17245 -2.7567
upperneck 17.3284 2.85961 -9.31968
head 4.61808 0.77292 -2.35669
rclavicle -2.54444e-014 1.59028e-015
rhumerus -2.01455 57.8459 -64.9948
rradius 121.577
rwrist -65.3029
rhand -3.62878 7.004
rfingers 7.12502
rthumb 22.1104 -21.7518
lclavicle -2.54444e-014 1.59028e-015
lhumerus -24.5646 24.0199 26.5593
lradius 57.995
lwrist 71.0048
lhand -22.8426 38.1608
lfingers 7.12502
lthumb 3.59514 68.1102
rfemur -26.9534 5.68732 11.8766
rtibia 48.2262
rfoot -23.3105 -6.72632
rtoes -11.656
lfemur -18.5811 10.0955 -27.5187
ltibia 41.599
lfoot -26.4917 13.3717
ltoes -13.839
2923
root 0.338617 17.2235 -1.46208 0.795655 -15.719 6.28584
lowerback 11.9935 3.09165 -0.830258
upperback 6.79882 3.94183 -0.703018
thorax 0.391317 1.94361 -0.710703
lowerneck 4.20132 1.48057 -2.86433
upperneck 17.4718 3.2716 -9.27705
head 4.66848 0.960839 -2.31584
rclavicle -7.15625e-015 7.95139e-016
rhumerus -3.70363 57.5726 -65.4349
rradius 122.144
rwrist -65.4889
rhand -4.58958 7.16085
rfingers 7.12502
rthumb 21.1877 -21.7013
lclavicle -7.15625e-015 7.95139e-016
lhumerus -24.429 23.3557 27.1036
lradius 60.4488
lwrist 71.7436
lhand -22.3229 38.0846
lfingers 7.12502
lthumb 4.09694 68.0249
rfemur -26.6992 5.56632 12.1346
rtibia 48.3569
rfoot -23.4407 -6.71227
rtoes -12.1693
lfemur -18.4288 10.0952 -27.2477
ltibia 41.9697
lfoot -26.6551 13.1973
ltoes -12.9508
